<svg xmlns="http://www.w3.org/2000/svg" viewBox="0 0 197.6 197.0" fill="#1C1B1A" role="img" aria-label="The Sofa Hub"><title>The Sofa Hub — Furniture Store</title><g transform="translate(-413.2 -361.0)"><path d="M413.20 390L413.20 529Q413.20 534.77 415.41 540.10Q417.61 545.43 421.69 549.51Q425.77 553.58 431.10 555.79Q436.43 558 442.20 558L581.80 558Q587.57 558 592.90 555.79Q598.23 553.58 602.31 549.51Q606.38 545.43 608.59 540.10Q610.80 534.77 610.80 529L610.80 515.80L551.80 515.80L551.80 543C551.80 548 548.50 551.20 543.50 551.20C539.50 551.20 536.50 549 533.60 544.80L519.39 515.80L494.20 515.80Q492.01 515.80 489.99 514.96Q487.97 514.13 486.42 512.58Q484.87 511.03 484.04 509.01Q483.20 506.99 483.20 504.80L483.20 442.45Q483.20 438.54 484.70 434.93Q486.19 431.32 488.96 428.56Q491.72 425.79 495.33 424.30Q498.94 422.80 502.85 422.80Q506.76 422.80 510.37 424.30Q513.98 425.79 516.74 428.56Q519.51 431.32 521 434.93Q522.50 438.54 522.50 442.45L522.50 485.20L610.80 485.20L610.80 483L525 483L525 457Q525 453.82 526.22 450.88Q527.44 447.94 529.69 445.69Q531.94 443.44 534.88 442.22Q537.82 441 541 441L610.80 441L610.80 438L525 438L525 391.80Q525 388.82 526.14 386.06Q527.28 383.30 529.39 381.19Q531.50 379.08 534.26 377.94Q537.02 376.80 540 376.80L607.62 376.80Q606.02 373.66 603.18 370.75Q600.34 367.85 596.71 365.63Q593.08 363.41 589.21 362.20Q585.33 361 581.80 361L442.20 361Q436.43 361 431.10 363.21Q425.77 365.41 421.69 369.49Q417.61 373.57 415.41 378.90Q413.20 384.23 413.20 390ZM530.64 515.80L545.80 515.80L545.80 536Q545 539.80 543.60 539.60L530.64 515.80Z"/></g></svg>
